<mxfile host="Electron" modified="2024-05-06T11:20:53.428Z" agent="Mozilla/5.0 (Macintosh; Intel Mac OS X 10_15_7) AppleWebKit/537.36 (KHTML, like Gecko) draw.io/22.1.2 Chrome/114.0.5735.289 Electron/25.9.4 Safari/537.36" etag="feX5qyWFCTNUb6ujEv1T" version="22.1.2" type="device">
  <diagram name="第 1 页" id="mbKvgOxyNxOtzdMSoI1X">
    <mxGraphModel dx="984" dy="649" grid="1" gridSize="10" guides="1" tooltips="1" connect="1" arrows="1" fold="1" page="1" pageScale="1" pageWidth="827" pageHeight="1169" math="0" shadow="0">
      <root>
        <mxCell id="0" />
        <mxCell id="1" parent="0" />
        <mxCell id="RdFu-PePBM-W7Z9yW0pT-1" value="" style="edgeStyle=orthogonalEdgeStyle;rounded=0;orthogonalLoop=1;jettySize=auto;html=1;fontFamily=Times New Roman;fontStyle=1;fontSize=13;labelBackgroundColor=none;strokeColor=#457B9D;fontColor=default;" edge="1" parent="1" source="RdFu-PePBM-W7Z9yW0pT-2" target="RdFu-PePBM-W7Z9yW0pT-4">
          <mxGeometry relative="1" as="geometry" />
        </mxCell>
        <mxCell id="RdFu-PePBM-W7Z9yW0pT-2" value="开始" style="rounded=1;whiteSpace=wrap;html=1;fontFamily=Times New Roman;fontStyle=1;fontSize=13;labelBackgroundColor=none;fillColor=#A8DADC;strokeColor=#457B9D;fontColor=#1D3557;" vertex="1" parent="1">
          <mxGeometry x="130" y="70" width="120" height="60" as="geometry" />
        </mxCell>
        <mxCell id="RdFu-PePBM-W7Z9yW0pT-3" value="" style="edgeStyle=orthogonalEdgeStyle;rounded=0;orthogonalLoop=1;jettySize=auto;html=1;fontFamily=Times New Roman;fontStyle=1;fontSize=13;labelBackgroundColor=none;strokeColor=#457B9D;fontColor=default;" edge="1" parent="1" source="RdFu-PePBM-W7Z9yW0pT-4" target="RdFu-PePBM-W7Z9yW0pT-6">
          <mxGeometry relative="1" as="geometry" />
        </mxCell>
        <mxCell id="RdFu-PePBM-W7Z9yW0pT-4" value="初始化8254 计数器0" style="rounded=1;whiteSpace=wrap;html=1;fontFamily=Times New Roman;fontStyle=1;fontSize=13;labelBackgroundColor=none;fillColor=#A8DADC;strokeColor=#457B9D;fontColor=#1D3557;" vertex="1" parent="1">
          <mxGeometry x="130" y="170" width="120" height="60" as="geometry" />
        </mxCell>
        <mxCell id="RdFu-PePBM-W7Z9yW0pT-5" value="" style="edgeStyle=orthogonalEdgeStyle;rounded=0;orthogonalLoop=1;jettySize=auto;html=1;fontFamily=Times New Roman;fontStyle=1;fontSize=13;labelBackgroundColor=none;strokeColor=#457B9D;fontColor=default;" edge="1" parent="1" source="RdFu-PePBM-W7Z9yW0pT-6" target="RdFu-PePBM-W7Z9yW0pT-7">
          <mxGeometry relative="1" as="geometry" />
        </mxCell>
        <mxCell id="RdFu-PePBM-W7Z9yW0pT-6" value="送计数初值N&lt;br style=&quot;font-size: 13px;&quot;&gt;N = 1000" style="rounded=1;whiteSpace=wrap;html=1;fontFamily=Times New Roman;fontStyle=1;fontSize=13;labelBackgroundColor=none;fillColor=#A8DADC;strokeColor=#457B9D;fontColor=#1D3557;" vertex="1" parent="1">
          <mxGeometry x="130" y="270" width="120" height="60" as="geometry" />
        </mxCell>
        <mxCell id="RdFu-PePBM-W7Z9yW0pT-9" value="" style="edgeStyle=orthogonalEdgeStyle;rounded=0;orthogonalLoop=1;jettySize=auto;html=1;" edge="1" parent="1" source="RdFu-PePBM-W7Z9yW0pT-7" target="RdFu-PePBM-W7Z9yW0pT-8">
          <mxGeometry relative="1" as="geometry" />
        </mxCell>
        <mxCell id="RdFu-PePBM-W7Z9yW0pT-7" value="初始化8254 计数器1" style="rounded=1;whiteSpace=wrap;html=1;fontFamily=Times New Roman;fontStyle=1;fontSize=13;labelBackgroundColor=none;fillColor=#A8DADC;strokeColor=#457B9D;fontColor=#1D3557;" vertex="1" parent="1">
          <mxGeometry x="130" y="380" width="120" height="60" as="geometry" />
        </mxCell>
        <mxCell id="RdFu-PePBM-W7Z9yW0pT-11" value="" style="edgeStyle=orthogonalEdgeStyle;rounded=0;orthogonalLoop=1;jettySize=auto;html=1;" edge="1" parent="1" source="RdFu-PePBM-W7Z9yW0pT-8" target="RdFu-PePBM-W7Z9yW0pT-10">
          <mxGeometry relative="1" as="geometry" />
        </mxCell>
        <mxCell id="RdFu-PePBM-W7Z9yW0pT-8" value="送计数初值N&lt;br&gt;N = 1000" style="rounded=1;whiteSpace=wrap;html=1;fontFamily=Times New Roman;fontStyle=1;fontSize=13;labelBackgroundColor=none;fillColor=#A8DADC;strokeColor=#457B9D;fontColor=#1D3557;" vertex="1" parent="1">
          <mxGeometry x="130" y="490" width="120" height="60" as="geometry" />
        </mxCell>
        <mxCell id="RdFu-PePBM-W7Z9yW0pT-10" value="初始化8254 计数器1" style="rounded=1;whiteSpace=wrap;html=1;fontFamily=Times New Roman;fontStyle=1;fontSize=13;labelBackgroundColor=none;fillColor=#A8DADC;strokeColor=#457B9D;fontColor=#1D3557;" vertex="1" parent="1">
          <mxGeometry x="130" y="600" width="120" height="60" as="geometry" />
        </mxCell>
      </root>
    </mxGraphModel>
  </diagram>
</mxfile>
